# xmcd CD database file
#
# Track frame offsets:
#	150
#	16348
#	35817
#	63543
#	85669
#	104653
#	120476
#	142968
#	162171
#	179490
#
# Disc length: 2697 seconds
#
# Revision: 0
# Processed by: cddbd v1.5.2PL0 Copyright (c) Steve Scherf et al.
# Submitted via: CDex 1.70beta2
#
DISCID=840a870a
DTITLE=Blue Moon - 249 - My one and only Love
DYEAR=1900
DGENRE=Jazz
TTITLE0=Stormy Monday Blues
TTITLE1=Penzilvenia 65000
TTITLE2=my one and only Love
TTITLE3=The Girl from Ipanema
TTITLE4=Pertido
TTITLE5=Blue Moon
TTITLE6=Is you or is you aint my Baby
TTITLE7=Just a Gigolo
TTITLE8=Sir Duke
TTITLE9=Summertime
EXTD=
EXTT0=
EXTT1=
EXTT2=
EXTT3=
EXTT4=
EXTT5=
EXTT6=
EXTT7=
EXTT8=
EXTT9=
PLAYORDER=
